<svg id="walking-stick" xmlns="http://www.w3.org/2000/svg" width="37.32" height="70.895" viewBox="0 0 37.32 70.895">
  <g id="Group_47" data-name="Group 47" transform="translate(6.22)">
    <g id="Group_46" data-name="Group 46" transform="translate(0)">
      <path id="Path_27" data-name="Path 27" d="M173.157,0a7,7,0,1,0,7,7A7.005,7.005,0,0,0,173.157,0Z" transform="translate(-166.16)" fill="#fff"/>
    </g>
  </g>
  <g id="Group_49" data-name="Group 49" transform="translate(0 14)">
    <g id="Group_48" data-name="Group 48">
      <path id="Path_28" data-name="Path 28" d="M147.364,102.037a4.622,4.622,0,0,0-2.792-.929c-3.842,0-4.3,2.817-8.506,11.226l-8.795,8.795a4.614,4.614,0,0,0-1.075,1.717,2.32,2.32,0,0,0-1.373.281,7.007,7.007,0,0,0-3.584,6.109V155.67a2.332,2.332,0,0,0,4.665,0V129.236a2.325,2.325,0,0,1,1.035-1.917,4.575,4.575,0,0,0,.332.407,4.648,4.648,0,0,0,3.287,1.367c0,.048.011.095.011.144V133.9a2.332,2.332,0,1,0,4.665,0v-4.665a3.034,3.034,0,0,0-.624-2.247c2.276-2.258,8.868-8.8,9.265-9.451l2.5-4.091,1.671,4.5a18.541,18.541,0,0,1,1.179,6.484v28.767a4.665,4.665,0,0,0,9.33,0V124.427A28.123,28.123,0,0,0,147.364,102.037Z" transform="translate(-121.24 -101.108)" fill="#fff"/>
    </g>
  </g>
</svg>
