<svg xmlns="http://www.w3.org/2000/svg" width="27.382" height="52.016" viewBox="0 0 27.382 52.016">
  <g id="Group_155" data-name="Group 155" transform="translate(-21156.42 -11980.711)">
    <path id="Path_27" data-name="Path 27" d="M171.294,0a5.134,5.134,0,1,0,5.134,5.134A5.14,5.14,0,0,0,171.294,0Z" transform="translate(20994.824 11980.711)" fill="#ff0560"/>
    <path id="Path_28" data-name="Path 28" d="M140.408,101.79a3.392,3.392,0,0,0-2.048-.682c-2.819,0-3.156,2.066-6.241,8.237l-6.453,6.453a3.385,3.385,0,0,0-.788,1.26,1.7,1.7,0,0,0-1.008.206,5.141,5.141,0,0,0-2.629,4.482v19.4a1.711,1.711,0,0,0,3.423,0v-19.4a1.706,1.706,0,0,1,.759-1.406,3.358,3.358,0,0,0,.243.3,3.411,3.411,0,0,0,2.412,1c0,.035.008.07.008.105v3.423a1.711,1.711,0,1,0,3.423,0v-3.423a2.226,2.226,0,0,0-.458-1.649c1.67-1.657,6.507-6.459,6.8-6.934l1.837-3,1.226,3.3a13.6,13.6,0,0,1,.865,4.757v21.107a3.423,3.423,0,0,0,6.845,0V118.218A20.634,20.634,0,0,0,140.408,101.79Z" transform="translate(21035.18 11889.875)" fill="#ff0560"/>
  </g>
</svg>
