<?xml version="1.0" encoding="utf-8"?>
<!-- Generator: Adobe Illustrator 24.0.1, SVG Export Plug-In . SVG Version: 6.00 Build 0)  -->
<svg version="1.1" id="Capa_1" xmlns="http://www.w3.org/2000/svg" xmlns:xlink="http://www.w3.org/1999/xlink" x="0px" y="0px"
	 viewBox="0 0 512 512" style="enable-background:new 0 0 512 512;" xml:space="preserve">
<style type="text/css">
	.st0{fill:#6EB52C;stroke:#FCEE6F;stroke-width:30;stroke-miterlimit:10;}
</style>
<title>clover_03</title>
<path class="st0" d="M116.8,148.5c-1.3,9.6-2,19.3-2,29c-0.1,22.9,3.4,40.5,7,57c11,50.2,13.5,47.1,17,69c3.7,23.3,10.6,65.7-3,109
	c-3,9.6-9,25.5-9,48c0,10.8,1.4,21.5,4,32l253,1c0.6-7.3,0.6-14.7,0-22c-2-23.8-10.2-40.6-13-47c-14-32.3-7.5-70.4-1-109
	c7-41.3,16-43.5,23-83c5-28.7,5.7-58.1,2-87L116.8,148.5z"/>
<path class="st0" d="M117.5,148.5l-1.1-4.5c-1.1-31.6,0.6-63.2,5.1-94.5c1.4-10,3.1-19.7,5-29l254-2c2.4,8.4,5.3,20,8,34
	c10.2,53.2,7,93,7,93s3.2-39.8-7-93c-2.7-14-5.6-25.6-8-34l-254,2c-1.9,9.3-3.6,19-5,29C116.9,82.3,115.5,115.4,117.5,148.5z"/>
</svg>
