<svg id="Capa_1" data-name="Capa 1" xmlns="http://www.w3.org/2000/svg" viewBox="0 0 312.34 505.14"><defs><style>.cls-1{fill:#6eb52c;stroke:#fcee6f;stroke-miterlimit:10;stroke-width:30px;}</style></defs><title>beer</title><path class="cls-1" d="M160.83,170.56a222.43,222.43,0,0,0-2,29c-.08,22.9,3.4,40.48,7,57,10.95,50.24,13.47,47.07,17,69,3.74,23.28,10.57,65.74-3,109-3,9.64-9,25.47-9,48a131.36,131.36,0,0,0,4,32l253,1a129.56,129.56,0,0,0,0-22c-2-23.83-10.21-40.56-13-47-14-32.29-7.53-70.43-1-109,7-41.28,16-43.52,23-83a291.52,291.52,0,0,0,2-87Z" transform="translate(-143.83 -25.47)"/><path class="cls-1" d="M160.83,170.56l-1.15-4.48a536,536,0,0,1,5.15-94.52c1.44-10,3.13-19.7,5-29l254-2c2.35,8.4,5.32,20,8,34,10.18,53.2,7,93,7,93s3.18-39.8-7-93c-2.68-14-5.65-25.6-8-34l-254,2c-1.89,9.28-3.58,18.95-5,29A496.65,496.65,0,0,0,160.83,170.56Z" transform="translate(-143.83 -25.47)"/></svg>