<svg id="Capa_1" data-name="Capa 1" xmlns="http://www.w3.org/2000/svg" viewBox="0 0 337.23 499.93"><defs><style>.cls-1{fill:none;stroke:#fff;stroke-miterlimit:10;stroke-width:18px;}</style></defs><title>clover</title><path class="cls-1" d="M195.2,497.75c.23,1.3,122.88-28.34,138.77-33.89A102.32,102.32,0,0,0,357,453c26.65-17.19,57.07-55.38,51.16-102.32C402,302,361.09,277.11,355.83,274a112.26,112.26,0,0,1-17.39,31.23c-9.29,11.76-19.27,24.49-35.81,28.14-24.19,5.34-44.37-11.52-47.32-14.07a58,58,0,0,1-16,8.95c-3.83,1.4-33.07,11.54-55-7-15.59-13.2-21.48-35.84-14.7-56.91a73.09,73.09,0,0,1-36.46-3.84c-7-2.68-27.4-10.44-35.17-30.06-7.4-18.69-.88-41.91,16-58.83-4.49-3.11-13-10-17.27-21.74-7.23-20.06,3.07-40.89,14.71-52.44,21.17-21,50.71-15.22,53.08-14.71a69.24,69.24,0,0,1,1.92-23.66c2-7.64,7.24-27.75,25.58-37.09,15.08-7.69,30.5-3.76,37.73-1.92A67.13,67.13,0,0,1,256,33.48a57.49,57.49,0,0,1,16-11.51c4.46-2.16,19.17-9.27,36.46-4.48,19.31,5.36,28.29,21.83,30.69,26.22,11.16,20.45,5.81,40.81,4.48,45.4a55.94,55.94,0,0,1,32.61-1.27c3.79,1,22.57,6.51,32,23.66,10,18.29,5.87,43.4-10.87,62A63.83,63.83,0,0,1,409.43,201c.91,5.22,3.76,25.71-7.68,42.2-15.4,22.2-46.87,23-45.92,30.8.36,2.92,4.77,3,13.9,9.9a101.43,101.43,0,0,1,14.6,14.34c22.82,26.89,24.5,60.82,24.5,60.82,2.6,52.72-40.63,85.84-45.37,89.34A108.51,108.51,0,0,1,334,463.86c-21.68,6.35-46.66,13.16-74.53,19.86C215.7,494.24,195.1,497.22,195.2,497.75Z" transform="translate(-85.31 -6.86)"/><path class="cls-1" d="M356.42,271.92,164.5,82.72" transform="translate(-85.31 -6.86)"/><path class="cls-1" d="M169.62,264.34,343.56,89.11" transform="translate(-85.31 -6.86)"/></svg>