<?xml version="1.0" encoding="utf-8"?>
<!-- Generator: Adobe Illustrator 24.0.1, SVG Export Plug-In . SVG Version: 6.00 Build 0)  -->
<svg version="1.1" id="Capa_1" xmlns="http://www.w3.org/2000/svg" xmlns:xlink="http://www.w3.org/1999/xlink" x="0px" y="0px"
	 viewBox="0 0 512 512" style="enable-background:new 0 0 512 512;" xml:space="preserve">
<style type="text/css">
	.st0{fill:none;stroke:#000000;stroke-width:15;stroke-linejoin:round;}
</style>
<title>clover_03</title>
<path class="st0" d="M255.9,160c27-26.9,40-39.5,71.5-71.3c18.2-18.2,18.2-47.7,0-65.8c-18.2-18.2-47.7-18.2-65.8,0l0,0l-5.3,5.3
	l-5.2-5.3c-18.2-18.2-47.6-18.2-65.8,0s-18.2,47.6,0,65.8L255.9,160z"/>
<path class="st0" d="M157.6,115.6c-18.2-18.2-47.6-18.2-65.8,0s-18.2,47.6,0,65.8l0,0l5.3,5.3l-5.2,5.3c-18.2,18.2-18.2,47.7,0,65.9
	s47.7,18.2,65.9,0l71.5-70.8C214.8,172.6,200.6,158.2,157.6,115.6z"/>
<path class="st0" d="M250.4,351.2l5.3-5.3l5.3,5.3c18.2,18.2,47.7,18.2,65.9,0c18.2-18.2,18.2-47.7,0-65.9l-70.9-71.5
	c-16.3,16.2-37.7,37.6-71.3,71.5c-18.2,18.2-18.2,47.7,0,65.9C202.7,369.4,232.2,369.4,250.4,351.2L250.4,351.2z"/>
<path class="st0" d="M414.9,187.3l5.3-5.3c18.2-18.2,18.2-47.7,0-65.8c-18.2-18.2-47.7-18.2-65.8,0c-29.7,29.4,29.5-29.1-71.4,70.8
	c14.2,14.4,28.5,28.8,71.4,71.4c18.2,18.2,47.7,18.2,65.9,0c18.2-18.2,18.2-47.7,0-65.9L414.9,187.3z"/>
<g>
	<path d="M374.3,305.9c1,7.2,1,14.5-0.1,21.8c29.7,45.7,6.6,110.2-49.6,123.8l-127,31.1c-7.6,2.1-12.1,9.9-10.1,17.5
		c1.7,6.3,7.5,10.6,13.8,10.6c1,0,2-0.1,3.1-0.3l127-31c78.2-19.1,108.9-111.2,62.7-173.1c-2.9,0.3-5.8,0.5-8.7,0.5
		C381.8,306.7,378,306.5,374.3,305.9L374.3,305.9z"/>
</g>
</svg>
