<svg id="Capa_1" data-name="Capa 1" xmlns="http://www.w3.org/2000/svg" viewBox="0 0 419.08 532.64"><defs><style>.cls-1,.cls-2{fill:none;stroke:#68b42e;stroke-miterlimit:10;}.cls-1{stroke-width:5px;}.cls-2{stroke-width:20px;}</style></defs><title>clover (1)</title><path class="cls-1" d="M341,285.72c37.81,39.28,64.24,66.16,74.32,75a54.92,54.92,0,0,1,11,13,52.87,52.87,0,0,1,7,18.25A52.22,52.22,0,0,1,431.06,418a50.48,50.48,0,0,1-18.51,25c-12.26,8.61-24.73,8.88-29.82,8.92a53.86,53.86,0,0,1-21.88-4.35,50.56,50.56,0,0,1-20.12-16.48,54.46,54.46,0,0,1-32,19.84,52,52,0,0,1-30.52-3.27,52.76,52.76,0,0,1-25.73-24.78,50.63,50.63,0,0,1-4.92-18.58c-1.14-16.95,6.73-29.32,9.55-33.63a61.15,61.15,0,0,1,14-15C283.1,346.44,303.58,327.23,341,285.72Z" transform="translate(-131.57 -35.44)"/><path class="cls-1" d="M381.89,245.13c39.27-37.81,66.15-64.23,75-74.32a54.79,54.79,0,0,1,12.94-11,53.19,53.19,0,0,1,18.26-7,52.08,52.08,0,0,1,26.13,2.24,50.44,50.44,0,0,1,25,18.5c8.6,12.26,8.88,24.73,8.92,29.82a53.68,53.68,0,0,1-4.36,21.89,50.51,50.51,0,0,1-16.47,20.11,54.46,54.46,0,0,1,19.84,32,52.06,52.06,0,0,1-3.28,30.53,52.72,52.72,0,0,1-24.77,25.72,50.63,50.63,0,0,1-18.58,4.92c-16.95,1.14-29.32-6.73-33.63-9.55a61.15,61.15,0,0,1-15-14C442.61,303,423.4,282.53,381.89,245.13Z" transform="translate(-131.57 -35.44)"/><path class="cls-1" d="M340.85,204.2c-37.81-39.27-64.23-66.16-74.32-75a54.92,54.92,0,0,1-11-13,52.87,52.87,0,0,1-7-18.25,52.22,52.22,0,0,1,2.23-26.13,50.48,50.48,0,0,1,18.51-25C281.54,38.26,294,38,299.1,37.94A53.86,53.86,0,0,1,321,42.29,50.56,50.56,0,0,1,341.1,58.77a54.46,54.46,0,0,1,32-19.84,52,52,0,0,1,30.52,3.27A52.76,52.76,0,0,1,429.37,67a50.63,50.63,0,0,1,4.92,18.58c1.14,17-6.73,29.32-9.55,33.63a61.15,61.15,0,0,1-14,15C398.73,143.48,378.25,162.69,340.85,204.2Z" transform="translate(-131.57 -35.44)"/><path class="cls-1" d="M300.33,244.9c-39.27,37.82-66.15,64.24-75,74.33a54.59,54.59,0,0,1-12.94,11,53.06,53.06,0,0,1-18.26,7A52.08,52.08,0,0,1,168,335a50.51,50.51,0,0,1-25-18.5c-8.6-12.26-8.88-24.73-8.92-29.82a53.68,53.68,0,0,1,4.36-21.89,50.51,50.51,0,0,1,16.47-20.11,54.57,54.57,0,0,1-19.84-32,52.06,52.06,0,0,1,3.28-30.53,52.72,52.72,0,0,1,24.77-25.72,50.63,50.63,0,0,1,18.58-4.92c16.95-1.14,29.32,6.72,33.63,9.55a61.15,61.15,0,0,1,15,14C239.61,187,258.82,207.5,300.33,244.9Z" transform="translate(-131.57 -35.44)"/><path class="cls-2" d="M463,371a41,41,0,0,1,1.65,17.66c39.85,33.53,16.8,88.57-50.57,106.45L261.66,535.52c-9.2,2.44-14.3,9.27-11.41,15.27s12.58,8.88,21.9,6.43l152.39-40.45c93.86-24.91,123.88-103.26,62.62-147.92A140,140,0,0,1,463,371Z" transform="translate(-131.57 -35.44)"/></svg>