<svg id="Capa_1" data-name="Capa 1" xmlns="http://www.w3.org/2000/svg" viewBox="0 0 512 512"><defs><style>.cls-1{fill:none;stroke:#000;stroke-linejoin:round;stroke-width:15px;}</style></defs><title>clover_03</title><path class="cls-1" d="M255.89,161.35c27.45-27.32,40.69-40.21,72.78-72.55a47.35,47.35,0,0,0-67-66.95l-5.37,5.37L251,21.85A47.35,47.35,0,1,0,184,88.8Z"/><path class="cls-1" d="M163.94,108.18a47.35,47.35,0,0,0-67,66.95l5.38,5.38L97,185.89a47.35,47.35,0,1,0,67,67l72.71-72C222.15,166.2,207.68,151.56,163.94,108.18Z"/><path class="cls-1" d="M250.29,339.83l5.38-5.38,5.37,5.38a47.35,47.35,0,1,0,67-67L255.89,200.1c-16.58,16.51-38.34,38.27-72.57,72.77a47.35,47.35,0,1,0,67,67Z"/><path class="cls-1" d="M409.64,181.16l5.38-5.37a47.35,47.35,0,0,0-67-66.95c-30.17,29.86,30-29.62-72.65,72,14.48,14.64,29,29.31,72.65,72.62a47.35,47.35,0,0,0,67-67Z"/><path class="cls-1" d="M370.19,295.6a76.71,76.71,0,0,1-.08,22.13c30.2,46.53,6.68,112.07-50.44,126l-129.21,31.6a14.54,14.54,0,0,0,6.9,28.24L326.57,472c79.58-19.46,110.76-113.11,63.78-176.07a77.69,77.69,0,0,1-20.16-.33Z"/></svg>