<svg id="coins" xmlns="http://www.w3.org/2000/svg" width="79.735" height="65.407" viewBox="0 0 79.735 65.407">
  <path id="Path_25" data-name="Path 25" d="M247.557,386a1.557,1.557,0,1,0,1.557,1.557A1.558,1.558,0,0,0,247.557,386Z" transform="translate(-207.69 -333.051)" fill="#fff"/>
  <path id="Path_26" data-name="Path 26" d="M73.052,48.394A38.7,38.7,0,0,0,59.022,46a38.7,38.7,0,0,0-14.029,2.394,13.822,13.822,0,0,0-5.126,3.278,13.822,13.822,0,0,0-5.126-3.278A38.692,38.692,0,0,0,20.712,46,38.7,38.7,0,0,0,6.683,48.394C2.373,50.129,0,52.6,0,55.344V92.719c0,2.746,2.373,5.215,6.683,6.95a37.878,37.878,0,0,0,12.939,2.38v.013c0,5.327,8.7,9.344,20.245,9.344s20.245-4.017,20.245-9.344v-.013a37.878,37.878,0,0,0,12.939-2.38c4.31-1.736,6.683-4.2,6.683-6.95V55.344C79.735,52.6,77.361,50.129,73.052,48.394ZM76.62,83.376c0,1.329-1.813,2.886-4.732,4.061a35.206,35.206,0,0,1-11.776,2.153V83.376s0-.009,0-.013a37.874,37.874,0,0,0,12.94-2.38,16.958,16.958,0,0,0,3.568-1.907v4.3ZM38.31,64.688c0,1.329-1.813,2.886-4.732,4.061a36.059,36.059,0,0,1-12.866,2.168A36.059,36.059,0,0,1,7.847,68.749c-2.919-1.176-4.732-2.732-4.732-4.061v-4.3a16.959,16.959,0,0,0,3.568,1.907,38.7,38.7,0,0,0,14.029,2.394,38.7,38.7,0,0,0,14.029-2.394,16.959,16.959,0,0,0,3.568-1.907ZM6.683,71.638a38.7,38.7,0,0,0,14.029,2.394,38.7,38.7,0,0,0,14.029-2.394,16.957,16.957,0,0,0,3.568-1.907v4.328a37.869,37.869,0,0,0-11.018,1.9c-3.134,1.1-5.39,2.576-6.616,4.3A36.036,36.036,0,0,1,7.847,78.093c-2.919-1.176-4.732-2.732-4.732-4.061v-4.3A16.957,16.957,0,0,0,6.683,71.638ZM3.115,79.075a16.958,16.958,0,0,0,3.568,1.907,37.88,37.88,0,0,0,12.94,2.38s0,.009,0,.013v6.214A35.205,35.205,0,0,1,7.847,87.437c-2.919-1.176-4.732-2.732-4.732-4.061ZM22.9,82.611c1.154-2.686,7.816-5.464,16.966-5.464s15.812,2.778,16.964,5.461a1.927,1.927,0,0,1,.166.768c0,1.369-1.688,2.89-4.515,4.068A33.9,33.9,0,0,1,39.867,89.6a33.894,33.894,0,0,1-12.615-2.161c-2.827-1.178-4.515-2.7-4.515-4.068A1.923,1.923,0,0,1,22.9,82.611ZM76.62,74.032c0,1.329-1.813,2.886-4.732,4.061a36.033,36.033,0,0,1-12.829,2.168c-1.226-1.726-3.481-3.2-6.617-4.3a37.866,37.866,0,0,0-11.018-1.9V69.731a16.957,16.957,0,0,0,3.568,1.907,38.694,38.694,0,0,0,14.029,2.394,38.694,38.694,0,0,0,14.029-2.394,16.957,16.957,0,0,0,3.568-1.907Zm0-9.344c0,1.329-1.813,2.886-4.732,4.061a36.059,36.059,0,0,1-12.866,2.168,36.059,36.059,0,0,1-12.866-2.168c-2.919-1.176-4.732-2.732-4.732-4.061v-4.3a16.958,16.958,0,0,0,3.568,1.907,38.7,38.7,0,0,0,14.029,2.394,38.7,38.7,0,0,0,14.029-2.394,16.959,16.959,0,0,0,3.568-1.907ZM46.157,51.283a36.061,36.061,0,0,1,12.866-2.168,36.061,36.061,0,0,1,12.866,2.168c2.919,1.176,4.732,2.732,4.732,4.061s-1.813,2.886-4.732,4.061a36.059,36.059,0,0,1-12.866,2.168,36.059,36.059,0,0,1-12.866-2.168c-2.919-1.176-4.732-2.732-4.732-4.061S43.238,52.458,46.157,51.283Zm-38.31,0a36.061,36.061,0,0,1,12.866-2.168,36.061,36.061,0,0,1,12.866,2.168c2.919,1.176,4.732,2.732,4.732,4.061s-1.813,2.886-4.732,4.061a36.059,36.059,0,0,1-12.866,2.168A36.059,36.059,0,0,1,7.847,59.405c-2.919-1.176-4.732-2.732-4.732-4.061S4.928,52.458,7.847,51.283Zm0,45.5c-2.919-1.176-4.732-2.732-4.732-4.061v-4.3a16.958,16.958,0,0,0,3.568,1.907,37.877,37.877,0,0,0,12.939,2.38v6.227A35.2,35.2,0,0,1,7.847,96.781Zm44.636,9.351a33.894,33.894,0,0,1-12.615,2.161,33.894,33.894,0,0,1-12.615-2.161c-2.827-1.178-4.515-2.7-4.515-4.068v-4.21a13.742,13.742,0,0,0,1.175.759,27.275,27.275,0,0,0,9.516,2.993,1.577,1.577,0,0,0,.228.017,1.557,1.557,0,0,0,.224-3.1c-7.238-1.063-11.143-3.784-11.143-5.805V88.5c3.525,2.579,9.747,4.223,17.13,4.223S53.473,91.075,57,88.5v4.223c0,2.021-3.905,4.742-11.143,5.805a1.557,1.557,0,0,0,.224,3.1,1.577,1.577,0,0,0,.228-.017,27.273,27.273,0,0,0,9.516-2.993A13.769,13.769,0,0,0,57,97.854v4.21C57,103.433,55.31,104.953,52.482,106.132Zm19.406-9.351a35.2,35.2,0,0,1-11.776,2.153V92.706a37.877,37.877,0,0,0,12.939-2.38,16.954,16.954,0,0,0,3.568-1.907v4.3C76.62,94.049,74.807,95.605,71.888,96.781Z" transform="translate(0 -46)" fill="#fff"/>
</svg>
