<svg xmlns="http://www.w3.org/2000/svg" width="105" height="105" viewBox="0 0 105 105">
  <g id="Group_127" data-name="Group 127" transform="translate(-12092 -1410)">
    <circle id="Ellipse_7" data-name="Ellipse 7" cx="52.5" cy="52.5" r="52.5" transform="translate(12092 1410)" fill="#f3ca26"/>
    <path id="gear" d="M63.471,25.1l-5-1.086a27.189,27.189,0,0,0-1.608-3.877l2.766-4.3a1.943,1.943,0,0,0-.26-2.424L51.59,5.627a1.943,1.943,0,0,0-2.424-.26l-4.3,2.766a27.189,27.189,0,0,0-3.877-1.608l-1.086-5A1.942,1.942,0,0,0,38,0H27a1.942,1.942,0,0,0-1.9,1.529l-1.086,5a27.188,27.188,0,0,0-3.877,1.608l-4.3-2.766a1.943,1.943,0,0,0-2.424.26L5.628,13.41a1.943,1.943,0,0,0-.26,2.424l2.766,4.3a27.189,27.189,0,0,0-1.608,3.877l-5,1.086A1.943,1.943,0,0,0,0,27V38a1.943,1.943,0,0,0,1.529,1.9l5,1.086a27.188,27.188,0,0,0,1.608,3.877l-2.766,4.3a1.943,1.943,0,0,0,.26,2.424l7.783,7.783a1.943,1.943,0,0,0,2.424.26l4.3-2.766a27.188,27.188,0,0,0,3.877,1.608l1.086,5A1.942,1.942,0,0,0,27,65H38a1.942,1.942,0,0,0,1.9-1.529l1.086-5a27.188,27.188,0,0,0,3.877-1.608l4.3,2.766a1.942,1.942,0,0,0,2.424-.26l7.783-7.783a1.943,1.943,0,0,0,.26-2.424l-2.766-4.3a27.189,27.189,0,0,0,1.608-3.877l5-1.086A1.943,1.943,0,0,0,65,38V27A1.943,1.943,0,0,0,63.471,25.1ZM44.153,32.5A11.653,11.653,0,1,1,32.5,20.846,11.667,11.667,0,0,1,44.153,32.5Zm0,0" transform="translate(12112 1430)"/>
  </g>
</svg>
