<svg id="Lag_1" data-name="Lag 1" xmlns="http://www.w3.org/2000/svg" viewBox="0 0 99.36 89.57"><defs><style>.cls-1{fill:none;stroke:#fff;stroke-width:6px;}</style></defs><title>heart</title><path class="cls-1" d="M15.7,51C21.85,61,28.5,69.1,45.21,85.9c4.73,4.76,7.74,7.67,12,7.65s6.82-2.76,11.7-7.5C85.78,69.63,90.83,65.73,98.36,54.94a32.17,32.17,0,0,0,4.93-9.51,32,32,0,0,0,.48-16.12c-.74-3.31-1.69-7.5-5.09-11.48-6.19-7.24-15.3-7.71-17-7.8-2.06-.1-9.22-.47-15,4-5,3.87-5.52,8.67-8.4,8.56s-3.17-4.33-7.74-8.09c-5-4.1-11-4.39-13.12-4.5-.86,0-12.3-.41-19.76,8.16a24.71,24.71,0,0,0-4.52,8,28,28,0,0,0-1.49,15.13A27.9,27.9,0,0,0,15.7,51Z" transform="translate(-8.2 -6.98)"/></svg>