<svg xmlns="http://www.w3.org/2000/svg" width="100.98" height="90.06" viewBox="0 0 100.98 90.06">
  <path id="heart" d="M49.49,88.06a5.8,5.8,0,0,1-3.826-1.438c-4-3.5-7.854-6.782-11.255-9.68l-.017-.015c-9.972-8.5-18.583-15.836-24.574-23.066C3.12,45.78,0,38.117,0,29.746A30.936,30.936,0,0,1,7.852,8.618,26.616,26.616,0,0,1,27.651,0,24.9,24.9,0,0,1,43.2,5.368a31.818,31.818,0,0,1,6.287,6.565,31.821,31.821,0,0,1,6.288-6.565A24.9,24.9,0,0,1,71.33,0a26.617,26.617,0,0,1,19.8,8.618A30.936,30.936,0,0,1,98.98,29.746c0,8.371-3.119,16.033-9.816,24.114-5.991,7.23-14.6,14.568-24.572,23.065-3.407,2.9-7.268,6.194-11.276,9.7A5.809,5.809,0,0,1,49.49,88.06ZM27.651,5.8a20.882,20.882,0,0,0-15.537,6.75A25.165,25.165,0,0,0,5.8,29.746c0,7.04,2.617,13.337,8.483,20.416,5.67,6.842,14.1,14.03,23.871,22.353l.018.015c3.414,2.91,7.284,6.208,11.312,9.73,4.052-3.529,7.928-6.833,11.349-9.747C70.6,64.191,79.029,57,84.7,50.162c5.866-7.079,8.483-13.375,8.483-20.416a25.165,25.165,0,0,0-6.317-17.2A20.88,20.88,0,0,0,71.33,5.8,19.23,19.23,0,0,0,59.324,9.955,28.135,28.135,0,0,0,52.634,17.7a3.66,3.66,0,0,1-6.287,0,28.109,28.109,0,0,0-6.691-7.742,19.229,19.229,0,0,0-12-4.156Zm0,0" transform="translate(1 1)" fill="#fff" stroke="#fff" stroke-width="2"/>
</svg>
