<svg id="Capa_1" data-name="Capa 1" xmlns="http://www.w3.org/2000/svg" viewBox="0 0 617.21 589.72"><defs><style>.cls-1{fill:none;stroke:#fff;stroke-miterlimit:10;stroke-width:40px;}</style></defs><title>home</title><path class="cls-1" d="M635.29,308.29a28.44,28.44,0,0,0-8-11.9l-64.48-58.52V138.23q-.35-6-.67-12c-.7-2-3-7.51-8.68-10.44a16.2,16.2,0,0,0-4.24-1.48c-35.72-.17-84.5-.34-123-.51-25.59-23.35-42.91-39.31-50-46.18-4.14-4-16.63-16.47-31.63-14.92-7.06.73-12.61,4.35-16.36,7.55-80.06,68.18-135.53,123.5-135.53,123.5a742.29,742.29,0,0,1-67.68,61.67l-27.42,25c-7,6.84-13.12,12.22-17.6,16-8.14,6.94-10.47,8.29-13.57,12.71-2.33,3.3-8,11.32-6.87,22.26a30,30,0,0,0,8,17.31c3.93,4.08,8.86,6.74,17.16,8.87,17.36,4.45,34.2,2.66,45.71.31-1.76,132.13-1.83,229.21.14,238.72a20.8,20.8,0,0,0,5.44,10.45,18.1,18.1,0,0,0,9.53,4.3c81.7,1.13,141.65,1.08,147.38-.25a20.15,20.15,0,0,0,6.51-2.88,17,17,0,0,0,5-5.76,16.79,16.79,0,0,0,1.84-5.69q.07-73,.16-145.95H390c-2.45,82.35-2.12,142.67.58,148.07a41,41,0,0,0,4.1,6.14c3.09,3.78,5.2,4.86,6.32,5.34a13,13,0,0,0,3.89,1c81.91,1.38,141.95,1.26,147.76-.25a20.53,20.53,0,0,0,7.72-4,16.89,16.89,0,0,0,5.61-11.7l0-237.53,47.65-.65c3-.69,11.75-3.13,17.49-11.23a29.54,29.54,0,0,0,4.75-11.57A31,31,0,0,0,635.29,308.29Z" transform="translate(-39.47 -32.58)"/></svg>