<svg xmlns="http://www.w3.org/2000/svg" width="68.72" height="65.36" viewBox="0 0 68.72 65.36">
  <path id="Path_88" data-name="Path 88" d="M58.72-38.72H48.56l-.32,1.68a9.975,9.975,0,0,0-6.64-2.08c-8.32,0-14.4,4.88-16.4,15.12l-.8,4.16c-1.76,9.28,2.4,15.2,10.72,15.2,5.36,0,8.72-1.6,11.44-5.04C48.08-6.32,51.2-4.64,56-4.64c11.92,0,18.88-9.12,18.88-24.48,0-15.68-11.84-25.68-28.32-25.68C25.28-54.8,6.16-40.64,6.16-16c0,16.8,12.8,26.56,27.68,26.56,10.32,0,18.72-2.64,23.12-5.2L54.4-2.24A40.158,40.158,0,0,1,35.92,1.92C24.72,1.92,16.4-4,16.4-16.88c0-12.56,7.84-29.28,28.48-29.28,10.88,0,19.84,4.72,19.84,17.68,0,.16.96,15.2-7.28,15.2-2.48,0-3.36-1.52-2.48-6ZM38.24-13.28c-3.52,0-4.4-2.24-3.44-7.36l.56-3.04c.8-4.32,2.72-6.8,6.24-6.8,3.68,0,4.96,1.68,4,6.8l-.72,4C44.08-15.28,42.16-13.28,38.24-13.28Z" transform="translate(-6.16 54.8)" fill="#ff0560"/>
</svg>
