<svg xmlns="http://www.w3.org/2000/svg" width="30px" height="30px" viewBox="0 0 60.519 60.515">
  <g id="Group_15" data-name="Group 15" transform="translate(0 0.001)">
    <path id="Path_14" data-name="Path 14" d="M60.4,46.9q-.255-.773-3.268-2.277-.822-.473-2.318-1.291t-2.729-1.5q-1.233-.686-2.3-1.332-.173-.127-1.073-.752a12.083,12.083,0,0,0-1.525-.925,2.816,2.816,0,0,0-1.233-.3,3.568,3.568,0,0,0-2.15,1.233,20.931,20.931,0,0,0-2.364,2.668,25.9,25.9,0,0,1-2.277,2.664,3.288,3.288,0,0,1-1.977,1.233,2.923,2.923,0,0,1-.966-.214c-.386-.144-.678-.267-.884-.366s-.543-.3-1.032-.6-.76-.465-.822-.493a45.176,45.176,0,0,1-10.075-7.5,45.151,45.151,0,0,1-7.481-10.1q-.041-.086-.493-.822t-.6-1.032a9.314,9.314,0,0,1-.366-.88,2.91,2.91,0,0,1-.214-.966,3.289,3.289,0,0,1,1.233-1.977,25.9,25.9,0,0,1,2.664-2.277,20.923,20.923,0,0,0,2.664-2.364,3.568,3.568,0,0,0,1.233-2.15,2.808,2.808,0,0,0-.3-1.233,11.949,11.949,0,0,0-.925-1.525q-.625-.9-.752-1.073-.645-1.073-1.332-2.3t-1.5-2.729q-.822-1.5-1.291-2.323-1.521-3-2.3-3.26a2.409,2.409,0,0,0-.9-.127,14.165,14.165,0,0,0-3.03.411,17.026,17.026,0,0,0-2.943.9A11.51,11.51,0,0,0,2.2,6.579a16.665,16.665,0,0,0-2.191,8,16.6,16.6,0,0,0,.152,2.257A18.547,18.547,0,0,0,.7,19.3q.386,1.377.625,2.055t.88,2.384q.645,1.718.773,2.1A38.936,38.936,0,0,0,6.546,33.36a63.74,63.74,0,0,0,9.265,11.37A63.773,63.773,0,0,0,27.181,54,39,39,0,0,0,34.7,57.551q.386.127,2.1.773t2.384.88q.666.238,2.055.625a18.717,18.717,0,0,0,2.466.538,15.949,15.949,0,0,0,10.252-2.055,11.51,11.51,0,0,0,5.245-4.559,16.927,16.927,0,0,0,.9-2.943,14.132,14.132,0,0,0,.411-3.03,2.4,2.4,0,0,0-.132-.88Z" transform="translate(-0.01 0)" fill="#ff0560"/>
  </g>
</svg>
