<svg xmlns="http://www.w3.org/2000/svg" width="51.501" height="41.2" viewBox="0 0 51.501 41.2">
  <g id="photo" transform="translate(0 -54.821)">
    <g id="Group_156" data-name="Group 156" transform="translate(0 54.821)">
      <path id="Path_88" data-name="Path 88" d="M50.24,56.082a4.132,4.132,0,0,0-3.031-1.261H4.292a4.134,4.134,0,0,0-3.031,1.261A4.132,4.132,0,0,0,0,59.112V91.73a4.132,4.132,0,0,0,1.261,3.031,4.134,4.134,0,0,0,3.031,1.261H47.21A4.3,4.3,0,0,0,51.5,91.73V59.112A4.132,4.132,0,0,0,50.24,56.082ZM48.067,91.73a.868.868,0,0,1-.858.858H4.292a.869.869,0,0,1-.858-.858V59.112a.87.87,0,0,1,.858-.858H47.21a.869.869,0,0,1,.857.858V91.73Z" transform="translate(0 -54.821)" fill="#ff0560"/>
      <path id="Path_89" data-name="Path 89" d="M78.246,138.21a5.128,5.128,0,1,0-3.648-1.5A4.966,4.966,0,0,0,78.246,138.21Z" transform="translate(-66.229 -121.043)" fill="#ff0560"/>
      <path id="Path_90" data-name="Path 90" d="M85.967,187.321l-4.292-4.291-8.583,8.583v5.15h37.767V184.746L99.7,173.587Z" transform="translate(-66.225 -162.429)" fill="#ff0560"/>
    </g>
  </g>
</svg>
