<svg id="smile" xmlns="http://www.w3.org/2000/svg" width="78.855" height="78.855" viewBox="0 0 78.855 78.855">
  <g id="Group_107" data-name="Group 107" transform="translate(0)">
    <g id="Group_106" data-name="Group 106">
      <path id="Path_82" data-name="Path 82" d="M73.568,19.638A39.262,39.262,0,0,0,59.219,5.29,38.569,38.569,0,0,0,39.429,0,38.567,38.567,0,0,0,19.638,5.29,39.252,39.252,0,0,0,5.288,19.638,38.566,38.566,0,0,0,0,39.43,38.575,38.575,0,0,0,5.288,59.221,39.262,39.262,0,0,0,19.637,73.569a38.574,38.574,0,0,0,19.791,5.287,38.576,38.576,0,0,0,19.791-5.287A39.26,39.26,0,0,0,73.568,59.221,38.575,38.575,0,0,0,78.855,39.43,38.574,38.574,0,0,0,73.568,19.638Zm-3.9,32.548a32.39,32.39,0,0,1-17.481,17.48,32.382,32.382,0,0,1-25.515,0A32.391,32.391,0,0,1,9.19,52.187a32.387,32.387,0,0,1,0-25.515A32.4,32.4,0,0,1,26.671,9.191a32.395,32.395,0,0,1,25.515,0A32.4,32.4,0,0,1,69.667,26.672a32.383,32.383,0,0,1,0,25.515Z" transform="translate(0 -0.002)" fill="#fff"/>
      <path id="Path_83" data-name="Path 83" d="M149.506,246.782a3.224,3.224,0,0,0-2.516.206,3.105,3.105,0,0,0-1.642,1.951,13.128,13.128,0,0,1-25.053,0,3.28,3.28,0,1,0-6.263,1.949,18.955,18.955,0,0,0,7.084,10.012,19.938,19.938,0,0,0,23.411,0,18.972,18.972,0,0,0,7.083-10.012,3.266,3.266,0,0,0-2.1-4.106Z" transform="translate(-93.393 -202.272)" fill="#fff"/>
      <path id="Path_84" data-name="Path 84" d="M116.206,122.778a6.574,6.574,0,1,0-4.646-1.926A6.335,6.335,0,0,0,116.206,122.778Z" transform="translate(-89.92 -89.921)" fill="#fff"/>
      <path id="Path_85" data-name="Path 85" d="M262.379,109.633a6.574,6.574,0,1,0,4.646,1.926A6.334,6.334,0,0,0,262.379,109.633Z" transform="translate(-209.808 -89.92)" fill="#fff"/>
    </g>
  </g>
</svg>
