<svg xmlns="http://www.w3.org/2000/svg" width="74.035" height="41.805" viewBox="0 0 74.035 41.805">
  <g id="Group_172" data-name="Group 172" transform="translate(-189.017 -1622.667)">
    <path id="Path_3" data-name="Path 3" d="M172.292,283.639a13.025,13.025,0,0,0-6.264-1.593h-5.392a13.093,13.093,0,0,0-13.1,13.1v4.04h31.585v-4.04A13.092,13.092,0,0,0,172.292,283.639Z" transform="translate(62.811 1365.29)" fill="#fff"/>
    <path id="Path_4" data-name="Path 4" d="M353.165,257.225h-4.483a12.968,12.968,0,0,0-7.1,2.107,17.465,17.465,0,0,1,7.865,14.578v1.9h16.778v-5.528A13.072,13.072,0,0,0,353.165,257.225Z" transform="translate(-103.171 1386.521)" fill="#fff"/>
    <path id="Path_5" data-name="Path 5" d="M17.54,257.225H13.057A13.073,13.073,0,0,0,0,270.282v5.528H17v-1.9A17.474,17.474,0,0,1,24.753,259.4,12.972,12.972,0,0,0,17.54,257.225Z" transform="translate(189.017 1386.521)" fill="#fff"/>
    <path id="Path_6" data-name="Path 6" d="M354.13,121.416h-.07a9.292,9.292,0,0,0,.083,18.553h.07a8.52,8.52,0,0,0,6.252-2.823,9.49,9.49,0,0,0,2.472-6.526A9.063,9.063,0,0,0,354.13,121.416Z" transform="translate(-106.384 1502.692)" fill="#fff"/>
    <path id="Path_7" data-name="Path 7" d="M53.732,121.416h-.07a9.292,9.292,0,0,0,.083,18.553h.07a8.52,8.52,0,0,0,6.252-2.823,9.488,9.488,0,0,0,2.472-6.526A9.063,9.063,0,0,0,53.732,121.416Z" transform="translate(150.577 1502.692)" fill="#fff"/>
    <path id="Path_8" data-name="Path 8" d="M196.745,111.445c-5.595,0-10.145,4.808-10.145,10.719a10.788,10.788,0,0,0,5.809,9.688,9.647,9.647,0,0,0,8.673,0,10.788,10.788,0,0,0,5.809-9.688C206.89,116.253,202.34,111.445,196.745,111.445Z" transform="translate(29.399 1511.222)" fill="#fff"/>
  </g>
</svg>
