<svg xmlns="http://www.w3.org/2000/svg" width="75.295" height="67.209" viewBox="0 0 75.295 67.209">
  <path id="heart" d="M36.648,65.209a4.3,4.3,0,0,1-2.833-1.065C30.853,61.555,28,59.122,25.48,56.976l-.013-.011c-7.384-6.293-13.761-11.727-18.2-17.08C2.31,33.9,0,28.226,0,22.027A22.908,22.908,0,0,1,5.815,6.382,19.709,19.709,0,0,1,20.476,0,18.436,18.436,0,0,1,31.992,3.975a23.562,23.562,0,0,1,4.656,4.862A23.564,23.564,0,0,1,41.3,3.975,18.436,18.436,0,0,1,52.82,0,19.71,19.71,0,0,1,67.481,6.382,22.908,22.908,0,0,1,73.3,22.027c0,6.2-2.309,11.873-7.269,17.857-4.437,5.354-10.813,10.787-18.2,17.08-2.523,2.15-5.382,4.587-8.35,7.182a4.3,4.3,0,0,1-2.833,1.064ZM20.476,4.294a15.463,15.463,0,0,0-11.5,5A18.635,18.635,0,0,0,4.293,22.027c0,5.213,1.938,9.876,6.282,15.118,4.2,5.067,10.445,10.389,17.676,16.552l.013.011c2.528,2.155,5.394,4.6,8.377,7.205,3-2.613,5.871-5.06,8.4-7.218,7.231-6.163,13.476-11.484,17.675-16.551C67.065,31.9,69,27.241,69,22.028A18.635,18.635,0,0,0,64.325,9.292a15.462,15.462,0,0,0-11.5-5,14.24,14.24,0,0,0-8.89,3.078A20.834,20.834,0,0,0,38.976,13.1a2.71,2.71,0,0,1-4.656,0,20.815,20.815,0,0,0-4.954-5.733,14.239,14.239,0,0,0-8.89-3.078Zm0,0" transform="translate(1 1)" fill="#ff0560" stroke="#ff0560" stroke-width="2"/>
</svg>
